<svg xmlns="http://www.w3.org/2000/svg" xmlns:xlink="http://www.w3.org/1999/xlink" width="500" height="500" viewBox="0 0 500 500"><defs><style>.a{clip-path:url(#b);}.b{fill:#fff;}.c{fill:none;}.d{fill:rgba(0,0,0,0);}</style><clipPath id="b"><rect width="500" height="500"/></clipPath></defs><g id="a" class="a"><rect class="d" width="500" height="500"/><g transform="translate(-0.408)"><path class="b" d="M84.576,158.439A60.977,60.977,0,0,1,22,99.352,61.038,61.038,0,0,1,32.22,67.064L71.591,8.478a16.24,16.24,0,0,1,25.956,0L136.442,66.3a62.1,62.1,0,0,1,10.71,33.056A60.977,60.977,0,0,1,84.576,158.439Zm0-113.212L58.666,83.75a29.568,29.568,0,0,0-5.378,15.6,31.505,31.505,0,0,0,62.576,0A30.976,30.976,0,0,0,110,82.979Z" transform="translate(321.969 29.288)"/><path class="b" d="M338.359,322.88H103.7A101.626,101.626,0,0,1,83.363,121.67a140.7,140.7,0,0,1,275.342,0A101.629,101.629,0,0,1,338.359,322.88ZM221.03,41.29a109.508,109.508,0,0,0-108.591,96.135l-1.55,12.706-12.758,1A70.338,70.338,0,0,0,103.7,291.592H338.359a70.338,70.338,0,0,0,5.576-140.461l-12.756-1-1.542-12.706A109.542,109.542,0,0,0,221.03,41.29Z" transform="translate(29.075 146.437)"/><rect class="c" width="500" height="500" transform="translate(0.408)"/></g></g></svg>