<svg xmlns="http://www.w3.org/2000/svg" xmlns:xlink="http://www.w3.org/1999/xlink" width="500" height="500" viewBox="0 0 500 500"><defs><style>.a{clip-path:url(#b);}.b{fill:#fff;}.c{fill:rgba(0,0,0,0);}</style><clipPath id="b"><rect width="500" height="500"/></clipPath></defs><g id="a" class="a"><rect class="c" width="500" height="500"/><g transform="translate(0 6.841)"><g transform="translate(0 89.656)"><path class="b" d="M418.76,233.2H10.261a10.261,10.261,0,1,1,0-20.523H416.776a10.3,10.3,0,0,1,1.984-.192,60.718,60.718,0,1,0-60.717-60.719,10.261,10.261,0,1,1-20.523,0,81.24,81.24,0,1,1,83.359,81.213A10.2,10.2,0,0,1,418.76,233.2Z" transform="translate(0 -70.53)"/></g><g transform="translate(0 18.583)"><path class="b" d="M208.352,181.255H10.261a10.261,10.261,0,1,1,0-20.523H206.368a10.3,10.3,0,0,1,1.984-.192,60.717,60.717,0,1,0-60.719-60.717,10.261,10.261,0,1,1-20.523,0,81.241,81.241,0,1,1,83.361,81.213A10.4,10.4,0,0,1,208.352,181.255Z" transform="translate(0 -18.583)"/></g><g transform="translate(0 305.255)"><path class="b" d="M334.092,390.59a81.334,81.334,0,0,1-81.242-81.24,10.261,10.261,0,1,1,20.523,0,60.718,60.718,0,1,0,60.719-60.717H10.261a10.261,10.261,0,0,1,0-20.523H334.092a81.24,81.24,0,1,1,0,162.48Z" transform="translate(0 -228.11)"/></g></g></g></svg>